<svg width="24" height="24" viewBox="0 0 24 24" fill="none" xmlns="http://www.w3.org/2000/svg">
<g id="svg2698404685">
<path id="Vector" d="M20.515 9.72801L13.015 2.65201C13.012 2.64901 13.008 2.64601 13.005 2.64201C12.433 2.12201 11.559 2.12201 10.987 2.64201L10.976 2.65201L3.485 9.72801C3.176 10.013 3 10.413 3 10.833V19.5C3 20.328 3.672 21 4.5 21H9C9.828 21 10.5 20.328 10.5 19.5V15H13.5V19.5C13.5 20.328 14.172 21 15 21H19.5C20.328 21 21 20.328 21 19.5V10.833C21 10.413 20.824 10.013 20.515 9.72801ZM19.5 19.5H15V15C15 14.172 14.328 13.5 13.5 13.5H10.5C9.672 13.5 9 14.172 9 15V19.5H4.5V10.833L4.51 10.823L12 3.75001L19.491 10.822L19.501 10.831L19.5 19.5Z" fill="white"/>
</g>
</svg>
