<svg width="17" height="17" viewBox="0 0 17 17" fill="none" xmlns="http://www.w3.org/2000/svg">
<g id="SVG">
<g id="Group">
<path id="Vector" d="M8.28003 10.1348C9.45363 10.1348 10.405 9.18337 10.405 8.00977C10.405 6.83616 9.45363 5.88477 8.28003 5.88477C7.10642 5.88477 6.15503 6.83616 6.15503 8.00977C6.15503 9.18337 7.10642 10.1348 8.28003 10.1348Z" stroke="white" stroke-width="1.5" stroke-linecap="round" stroke-linejoin="round"/>
<path id="Vector_2" d="M11.28 2.00977H5.28003C3.62318 2.00977 2.28003 3.35291 2.28003 5.00977V11.0098C2.28003 12.6666 3.62318 14.0098 5.28003 14.0098H11.28C12.9369 14.0098 14.28 12.6666 14.28 11.0098V5.00977C14.28 3.35291 12.9369 2.00977 11.28 2.00977Z" stroke="white" stroke-width="1.5" stroke-linecap="round" stroke-linejoin="round"/>
<path id="Vector_3" d="M11.53 5.75977C12.0823 5.75977 12.53 5.31205 12.53 4.75977C12.53 4.20748 12.0823 3.75977 11.53 3.75977C10.9777 3.75977 10.53 4.20748 10.53 4.75977C10.53 5.31205 10.9777 5.75977 11.53 5.75977Z" fill="white"/>
</g>
</g>
</svg>
