<svg width="16" height="17" viewBox="0 0 16 17" fill="none" xmlns="http://www.w3.org/2000/svg">
<g id="SVG" clip-path="url(#clip0_2_894)">
<g id="Group">
<path id="Vector" d="M8 9.47021C9.10457 9.47021 10 8.57478 10 7.47021C10 6.36565 9.10457 5.47021 8 5.47021C6.89543 5.47021 6 6.36565 6 7.47021C6 8.57478 6.89543 9.47021 8 9.47021Z" stroke="#B3B3B3" stroke-width="1.5" stroke-linecap="round" stroke-linejoin="round"/>
<path id="Vector_2" d="M13 7.47021C13 11.9702 8 15.4702 8 15.4702C8 15.4702 3 11.9702 3 7.47021C3 6.14413 3.52678 4.87236 4.46447 3.93468C5.40215 2.997 6.67392 2.47021 8 2.47021C9.32608 2.47021 10.5979 2.997 11.5355 3.93468C12.4732 4.87236 13 6.14413 13 7.47021Z" stroke="#B3B3B3" stroke-width="1.5" stroke-linecap="round" stroke-linejoin="round"/>
</g>
</g>
<defs>
<clipPath id="clip0_2_894">
<rect width="16" height="16" fill="white" transform="translate(0 0.970215)"/>
</clipPath>
</defs>
</svg>
