<svg width="24" height="24" viewBox="0 0 24 24" fill="none" xmlns="http://www.w3.org/2000/svg">
<g id="svg3694854182">
<path id="Vector" d="M21.7501 3C21.7501 2.586 21.4141 2.25 21.0001 2.25C16.8671 2.25 12.6271 6.91 10.2721 9.997C8.56708 9.474 6.71408 9.792 5.28008 10.852C3.84608 11.913 3.00008 13.591 3.00008 15.375C3.00008 18.27 1.16808 19.568 1.08108 19.628C0.808082 19.813 0.687082 20.154 0.783082 20.469C0.880082 20.784 1.17008 21 1.50008 21H8.62508C10.4091 21 12.0871 20.154 13.1481 18.72C14.2081 17.286 14.5261 15.433 14.0031 13.728C17.0911 11.373 21.7501 7.133 21.7501 3ZM8.62508 19.5H3.24708C3.87908 18.601 4.50008 17.242 4.50008 15.375C4.50008 13.097 6.34708 11.25 8.62508 11.25C10.9031 11.25 12.7501 13.097 12.7501 15.375C12.7501 17.653 10.9031 19.5 8.62508 19.5ZM11.6641 10.645C11.9861 10.229 12.3011 9.837 12.6101 9.469C13.3681 9.98 14.0201 10.632 14.5311 11.39C14.1621 11.698 13.7701 12.014 13.3551 12.336C12.9181 11.659 12.3411 11.082 11.6641 10.645ZM15.6671 10.394C15.1011 9.595 14.4041 8.898 13.6051 8.332C16.5841 5.094 18.8321 4.113 20.1581 3.84C19.8911 5.167 18.9051 7.415 15.6671 10.394Z" fill="white"/>
</g>
</svg>
