<svg width="17" height="17" viewBox="0 0 17 17" fill="none" xmlns="http://www.w3.org/2000/svg">
<g id="SVG">
<g id="Group">
<path id="Vector" d="M14.11 5.22021H3.10999C2.83384 5.22021 2.60999 5.44407 2.60999 5.72021V13.7202C2.60999 13.9964 2.83384 14.2202 3.10999 14.2202H14.11C14.3861 14.2202 14.61 13.9964 14.61 13.7202V5.72021C14.61 5.44407 14.3861 5.22021 14.11 5.22021Z" stroke="#B3B3B3" stroke-width="1.5" stroke-linecap="round" stroke-linejoin="round"/>
<path id="Vector_2" d="M11.11 5.22021V3.97021C11.11 3.705 11.0046 3.45064 10.8171 3.26311C10.6296 3.07557 10.3752 2.97021 10.11 2.97021H7.10999C6.84477 2.97021 6.59042 3.07557 6.40288 3.26311C6.21534 3.45064 6.10999 3.705 6.10999 3.97021V5.22021" stroke="#B3B3B3" stroke-width="1.5" stroke-linecap="round" stroke-linejoin="round"/>
<path id="Vector_3" d="M14.61 8.61377C12.7864 9.66841 10.7166 10.2225 8.60999 10.22C6.50302 10.2255 4.43241 9.67118 2.60999 8.61377" stroke="#B3B3B3" stroke-width="1.5" stroke-linecap="round" stroke-linejoin="round"/>
<path id="Vector_4" d="M7.85999 7.97021H9.35999" stroke="#B3B3B3" stroke-width="1.5" stroke-linecap="round" stroke-linejoin="round"/>
</g>
</g>
</svg>
