<svg version="1.1" xmlns="http://www.w3.org/2000/svg" xmlns:xlink="http://www.w3.org/1999/xlink" width="24px" height="24px" viewBox="0,0,256,256"><g fill="#ffffff" fill-rule="nonzero" stroke="none" stroke-width="1" stroke-linecap="butt" stroke-linejoin="miter" stroke-miterlimit="10" stroke-dasharray="" stroke-dashoffset="0" font-family="none" font-weight="none" font-size="none" text-anchor="none" style="mix-blend-mode: normal"><g transform="scale(10.66667,10.66667)"><path d="M4,4c-1.103,0 -2,0.897 -2,2v10c0,1.103 0.897,2 2,2h-4v2h13.17188l0.92969,-0.92969c-0.063,-0.348 -0.10156,-0.70431 -0.10156,-1.07031c0,-0.702 0.12661,-1.373 0.34961,-2h-10.34961v-10h16l0.00195,6c0.682,0 1.35005,0.12247 1.99805,0.35547v-6.35547c0,-1.103 -0.897,-2 -2,-2zM20,14c-2.209,0 -4,1.791 -4,4c0,0.58625 0.13275,1.13892 0.35938,1.64063l-2.06641,2.06641c-0.391,0.391 -0.391,1.02406 0,1.41406l0.58594,0.58594c0.39,0.391 1.02306,0.391 1.41406,0l2.06641,-2.06641c0.50171,0.22663 1.05437,0.35938 1.64063,0.35938c2.209,0 4,-1.791 4,-4c0,-0.586 -0.13237,-1.13962 -0.35937,-1.64062l-2.64062,2.64063l-2,-2l2.64063,-2.64062c-0.501,-0.227 -1.05463,-0.35937 -1.64062,-0.35937z"></path></g></g></svg>