<svg width="24" height="24" viewBox="0 0 24 24" fill="none" xmlns="http://www.w3.org/2000/svg">
<g id="svg3205468193">
<path id="Vector" d="M20.826 5.519C20.683 5.349 20.472 5.25 20.25 5.25H5.126L4.668 2.732C4.538 2.019 3.917 1.5 3.192 1.5H1.5C1.086 1.5 0.75 1.836 0.75 2.25C0.75 2.664 1.086 3 1.5 3H3.188L5.584 16.152C5.654 16.542 5.827 16.907 6.083 17.209C5.1 18.127 4.97 19.641 5.784 20.713C6.597 21.786 8.089 22.069 9.239 21.37C10.389 20.671 10.824 19.215 10.246 18H14.504C14.336 18.351 14.249 18.736 14.25 19.125C14.25 20.575 15.425 21.75 16.875 21.75C18.325 21.75 19.5 20.575 19.5 19.125C19.5 17.675 18.325 16.5 16.875 16.5H7.797C7.435 16.5 7.124 16.241 7.059 15.884L6.762 14.25H17.637C18.725 14.25 19.656 13.472 19.851 12.402L20.991 6.134C21.03 5.915 20.969 5.689 20.826 5.519ZM9 19.125C9 19.746 8.496 20.25 7.875 20.25C7.254 20.25 6.75 19.746 6.75 19.125C6.75 18.504 7.254 18 7.875 18C8.496 18 9 18.504 9 19.125ZM18 19.125C18 19.746 17.496 20.25 16.875 20.25C16.254 20.25 15.75 19.746 15.75 19.125C15.75 18.504 16.254 18 16.875 18C17.496 18 18 18.504 18 19.125ZM18.375 12.134C18.31 12.492 17.998 12.751 17.634 12.75H6.489L5.399 6.75H19.351L18.375 12.134Z" fill="white"/>
</g>
</svg>
