<svg width="24" height="24" viewBox="0 0 24 24" fill="none" xmlns="http://www.w3.org/2000/svg">
<g id="svg2087747158">
<path id="Vector" d="M20.25 3.75H3.75C2.922 3.75 2.25 4.422 2.25 5.25V18.75C2.25 19.578 2.922 20.25 3.75 20.25H20.25C21.078 20.25 21.75 19.578 21.75 18.75V5.25C21.75 4.422 21.078 3.75 20.25 3.75ZM20.25 18.75H3.75V5.25H20.25V18.75ZM16.5 8.25C16.5 10.735 14.485 12.75 12 12.75C9.515 12.75 7.5 10.735 7.5 8.25C7.5 7.836 7.836 7.5 8.25 7.5C8.664 7.5 9 7.836 9 8.25C9 9.907 10.343 11.25 12 11.25C13.657 11.25 15 9.907 15 8.25C15 7.836 15.336 7.5 15.75 7.5C16.164 7.5 16.5 7.836 16.5 8.25Z" fill="white"/>
</g>
</svg>
