<svg width="40" height="61" viewBox="0 0 40 61" fill="none" xmlns="http://www.w3.org/2000/svg">
<g id="svg634162819">
<path id="Vector" d="M38.85 29.1601C34.05 26.3101 26.025 26.0101 21.45 27.4351C20.7 27.6601 19.95 27.2101 19.725 26.5351C19.5 25.7851 19.95 25.0351 20.625 24.8101C25.95 23.2351 34.725 23.5351 40.275 26.8351C40.95 27.2101 41.175 28.1101 40.8 28.7851C40.425 29.3101 39.525 29.5351 38.85 29.1601ZM38.7 33.3601C38.325 33.8851 37.65 34.1101 37.125 33.7351C33.075 31.2601 26.925 30.5101 22.2 32.0101C21.6 32.1601 20.925 31.8601 20.775 31.2601C20.625 30.6601 20.925 29.9851 21.525 29.8351C27 28.1851 33.75 29.0101 38.4 31.8601C38.85 32.0851 39.075 32.8351 38.7 33.3601ZM36.9 37.4851C36.6 37.9351 36.075 38.0851 35.625 37.7851C32.1 35.6101 27.675 35.1601 22.425 36.3601C21.9 36.5101 21.45 36.1351 21.3 35.6851C21.15 35.1601 21.525 34.7101 21.975 34.5601C27.675 33.2851 32.625 33.8101 36.525 36.2101C37.05 36.4351 37.125 37.0351 36.9 37.4851ZM30 15.8101C21.75 15.8101 15 22.5601 15 30.8101C15 39.0601 21.75 45.8101 30 45.8101C38.25 45.8101 45 39.0601 45 30.8101C45 22.5601 38.325 15.8101 30 15.8101Z" fill="white"/>
</g>
</svg>
