<svg width="60" height="61" viewBox="0 0 60 61" fill="none" xmlns="http://www.w3.org/2000/svg">
<g id="svg2816121677">
<path id="Vector" d="M22.005 35.4661V38.8051L14 30.8001L15.678 29.1351L22.006 35.4671L22.005 35.4661ZM25.344 38.8051H22.005L30.01 46.8101L31.681 45.1411L25.344 38.8051ZM44.331 32.4761L46 30.8071L30.003 14.8101L28.335 16.4801L34.656 22.8081H30.835L26.423 18.4001L24.753 20.0681L27.5 22.8161H25.588V35.2291H38.002V33.3091L40.749 36.0571L42.419 34.3891L38.002 29.9711V26.1511L44.331 32.4761ZM22.84 21.9731L21.172 23.6431L22.962 25.4341L24.631 23.7641L22.841 21.9741L22.84 21.9731ZM37.046 36.1791L35.383 37.8481L37.174 39.6381L38.843 37.9671L37.046 36.1791ZM19.26 25.5561L17.59 27.2261L22.005 31.6411V28.3011L19.26 25.5561ZM32.509 38.8051H29.169L33.585 43.2201L35.255 41.5501L32.509 38.8051Z" fill="white"/>
</g>
</svg>
