<svg width="60" height="61" viewBox="0 0 60 61" fill="none" xmlns="http://www.w3.org/2000/svg">
<g id="svg1404424367">
<path id="Vector" d="M15.367 34.2671C15.301 33.9821 15.64 33.8031 15.846 34.0101L26.8 44.9631C27.007 45.1691 26.827 45.5081 26.543 45.4421C21.015 44.1451 16.664 39.7941 15.368 34.2661L15.367 34.2671ZM15 29.8771C14.995 29.9621 15.027 30.0441 15.087 30.1051L30.705 45.7221C30.765 45.7821 30.848 45.8151 30.933 45.8091C31.635 45.7661 32.333 45.6731 33.022 45.5311C33.128 45.5091 33.212 45.4311 33.242 45.3271C33.272 45.2241 33.243 45.1121 33.165 45.0371L15.773 27.6451C15.698 27.5671 15.586 27.5381 15.482 27.5681C15.379 27.5981 15.3 27.6831 15.278 27.7881C15.137 28.4771 15.044 29.1751 15 29.8771ZM16.263 24.7221C16.213 24.8341 16.238 24.9651 16.325 25.0521L35.758 44.4841C35.845 44.5711 35.976 44.5961 36.088 44.5461C36.622 44.3091 37.142 44.0401 37.644 43.7411C37.722 43.6951 37.774 43.6141 37.785 43.5241C37.795 43.4341 37.764 43.3431 37.699 43.2791L17.53 23.1111C17.467 23.0461 17.376 23.0151 17.286 23.0251C17.196 23.0361 17.115 23.0881 17.068 23.1661C16.77 23.6681 16.501 24.1881 16.263 24.7211V24.7221ZM18.797 21.2321C18.686 21.1211 18.681 20.9431 18.784 20.8261C21.534 17.7481 25.533 15.8101 29.985 15.8101C38.278 15.8101 45 22.5321 45 30.8241C45 35.2761 43.062 39.2761 39.984 42.0251C39.867 42.1301 39.688 42.1241 39.577 42.0131L18.797 21.2321Z" fill="white"/>
</g>
</svg>
