<svg width="60" height="61" viewBox="0 0 60 61" fill="none" xmlns="http://www.w3.org/2000/svg">
<g id="svg789589099">
<path id="Vector" d="M16.403 36.7902L14.604 40.5642C13.689 42.4842 14.377 44.8472 16.262 45.8472C18.262 46.9072 20.722 46.0802 21.686 44.0622L23.328 40.6182C20.793 39.8032 18.441 38.5032 16.403 36.7902ZM16.403 36.7902C14.349 35.0592 12.713 32.9562 11.786 30.6632C10.973 28.6472 11.949 26.3482 13.97 25.5322C15.991 24.7212 18.294 25.6952 19.112 27.7112C19.323 28.2362 19.627 28.7492 20.001 29.2412C21.496 31.2152 24.141 32.8372 26.768 33.3942C27.402 33.5292 28.036 33.5992 28.648 33.5992C29.437 33.5982 30.223 33.5042 30.989 33.3182L34.414 40.5202C32.561 41.1422 30.616 41.4832 28.643 41.4832C26.866 41.4832 25.062 41.1752 23.322 40.6182C20.79 39.8032 18.439 38.5032 16.403 36.7902ZM30.995 33.3182L29.31 29.7822C29.235 29.6262 29.077 29.5262 28.903 29.5262C28.73 29.5262 28.572 29.6262 28.497 29.7822L26.774 33.3942C24.146 32.8372 21.502 31.2152 20.007 29.2412L25.333 18.0602C25.819 17.0412 26.717 16.2792 27.802 15.9662C28.886 15.6532 30.052 15.8182 31.007 16.4202C31.638 16.8182 32.143 17.3862 32.463 18.0602L43.176 40.5482C44.238 42.7762 43.111 45.5062 40.732 46.1602C40.39 46.2572 40.036 46.3062 39.681 46.3062C38.933 46.3082 38.201 46.0972 37.569 45.6982C36.937 45.3012 36.431 44.7312 36.11 44.0572L30.995 33.3182ZM30.995 33.3182H31.006M44.828 20.7852C43.801 20.5792 42.734 20.7902 41.862 21.3702C40.991 21.9492 40.386 22.8512 40.179 23.8782C39.8 25.7702 38.912 27.5332 37.687 29.0302L41.279 36.5792C44.596 33.7082 47.044 29.7982 47.922 25.4242C48.35 23.2832 46.963 21.2062 44.828 20.7852Z" stroke="white" stroke-width="2.25" stroke-miterlimit="10"/>
</g>
</svg>
