<svg width="60" height="61" viewBox="0 0 60 61" fill="none" xmlns="http://www.w3.org/2000/svg">
<g id="svg1085085871">
<path id="Vector" d="M26.4401 34.223L34.5071 37.943C35.4421 38.367 36.1861 39.125 36.5931 40.068C37.5561 42.317 36.2391 44.617 34.1711 45.444C32.1021 46.271 29.8981 45.739 28.8961 43.4L25.3851 35.189C25.1131 34.551 25.7961 33.926 26.4401 34.223ZM26.9251 31.815L35.2501 28.675C38.0171 27.631 41.0401 29.605 41.0001 32.475L40.9981 32.587C40.9381 35.382 38.0001 37.259 35.2931 36.271L26.9331 33.217C26.6341 33.115 26.4321 32.834 26.4301 32.518C26.4291 32.202 26.6271 31.92 26.9251 31.815ZM26.4581 30.726L34.6431 27.257C37.3631 26.103 38.0531 22.642 35.9241 20.642C35.8961 20.616 35.8681 20.59 35.8401 20.564C33.7521 18.63 30.2991 19.31 29.1101 21.858L25.4391 29.73C25.1451 30.357 25.8051 31.004 26.4581 30.726ZM24.3521 29.356L27.3281 21.214C27.6791 20.265 27.6501 19.216 27.2471 18.287C26.2811 16.04 23.6651 15.313 21.5991 16.142C19.5301 16.97 18.3621 18.853 19.3661 21.192L22.8991 29.394C23.1721 30.03 24.1151 30.006 24.3521 29.356Z" fill="white"/>
</g>
</svg>
