<svg width="60" height="61" viewBox="0 0 60 61" fill="none" xmlns="http://www.w3.org/2000/svg">
<g id="svg1329110653">
<path id="Vector" d="M34.375 26.1441C33.146 26.1441 31.969 26.6361 31.105 27.5101C30.236 28.3881 29.749 29.5741 29.75 30.8101C29.75 32.0481 30.237 33.2351 31.105 34.1101C31.969 34.9841 33.146 35.4761 34.375 35.4761C35.604 35.4761 36.781 34.9841 37.645 34.1101C38.514 33.2321 39.001 32.0461 39 30.8101C39 29.5731 38.513 28.3851 37.645 27.5101C36.781 26.6361 35.604 26.1441 34.375 26.1441ZM34.375 26.1441H29.75M34.375 26.1441C35.604 26.1421 36.781 25.6501 37.645 24.7771C38.514 23.8981 39.001 22.7121 39 21.4761C39.001 20.2411 38.514 19.0551 37.645 18.1771C36.781 17.3031 35.604 16.8111 34.375 16.8101H29.75M29.75 26.1441V35.4771M29.75 26.1441V16.8101M29.75 26.1441H25.125M29.75 16.8101H25.125C23.896 16.8111 22.719 17.3031 21.855 18.1771C20.986 19.0551 20.499 20.2411 20.5 21.4771C20.5 22.7141 20.987 23.9021 21.855 24.7771C22.719 25.6501 23.896 26.1421 25.125 26.1441M25.125 35.4761C23.896 35.4781 22.719 35.9701 21.855 36.8431C20.986 37.7221 20.499 38.9081 20.5 40.1441C20.5 41.3811 20.987 42.5681 21.855 43.4431C22.719 44.3171 23.896 44.8091 25.125 44.8101C26.354 44.8091 27.531 44.3171 28.395 43.4431C29.264 42.5651 29.751 41.3791 29.75 40.1431V35.4771M25.125 35.4761L29.75 35.4771M25.125 35.4761C23.896 35.4751 22.719 34.9841 21.855 34.1101C20.986 33.2321 20.499 32.0461 20.5 30.8101C20.5 29.5731 20.987 28.3851 21.855 27.5101C22.719 26.6361 23.896 26.1441 25.125 26.1441" stroke="white" stroke-width="2.25" stroke-miterlimit="10"/>
</g>
</svg>
