<svg width="60" height="61" viewBox="0 0 60 61" fill="none" xmlns="http://www.w3.org/2000/svg">
<g id="svg2881397808">
<path id="Vector" d="M24.505 28.0252V27.7912C24.505 27.1992 24.982 26.7082 25.597 26.6672L30.073 26.3702L36.263 35.4382V27.4792L34.67 27.2682V27.1572C34.67 26.5572 35.158 26.0632 35.78 26.0322L39.853 25.8242V26.4072C39.853 26.6802 39.648 26.9142 39.368 26.9622L38.389 27.1272V40.0162L37.158 40.4372C36.13 40.7882 34.987 40.4122 34.399 39.5292L28.389 30.5072V39.1182L30.239 39.4702L30.213 39.6412C30.132 40.1762 29.668 40.5802 29.107 40.6052L24.506 40.8082C24.445 40.2332 24.878 39.7192 25.476 39.6572L26.081 39.5932V28.1132L24.505 28.0252Z" fill="white"/>
<path id="Vector_2" d="M35.406 15.8189L16.961 17.0709C15.856 17.1459 15 18.0299 15 19.0949V36.9409C15 37.9419 15.346 38.9139 15.984 39.7049L19.961 44.6329C20.604 45.4299 21.616 45.8679 22.663 45.8049L43.134 44.5509C44.183 44.4859 45 43.6489 45 42.6379V22.3489C45 21.7239 44.682 21.1379 44.15 20.7789L37.669 16.4209C37.002 15.9749 36.206 15.7629 35.406 15.8189ZM17.876 19.3729C17.62 19.1839 17.742 18.7909 18.064 18.7679L35.529 17.5209C36.083 17.4799 36.635 17.6319 37.09 17.9509L40.594 20.4209C40.727 20.5149 40.664 20.7169 40.499 20.7259L22.003 21.7269C21.446 21.7579 20.896 21.5949 20.446 21.2659L17.876 19.3729ZM21.136 24.8639C21.136 24.2659 21.621 23.7729 22.242 23.7389L41.798 22.6789C42.403 22.6469 42.912 23.1089 42.912 23.6919V41.2599C42.912 41.8569 42.428 42.3509 41.809 42.3849L22.377 43.4849C21.703 43.5229 21.135 43.0089 21.135 42.3599L21.136 24.8639Z" fill="white"/>
</g>
</svg>
