<svg width="19" height="19" viewBox="0 0 19 19" fill="none" xmlns="http://www.w3.org/2000/svg">
<g id="svg1524022926">
<path id="Vector" d="M7.02492 15.8236L3.04092 5.46564C2.41992 3.84964 4.00992 2.25964 5.62592 2.88164L15.9829 6.86464C17.5389 7.46264 17.7229 9.58964 16.2949 10.4466L13.1679 12.3226C12.8859 12.4916 12.6509 12.7266 12.4819 13.0086L10.6069 16.1346C9.74892 17.5636 7.62292 17.3786 7.02492 15.8236Z" fill="#a5478c"/>
<path id="Vector_2" d="M7.49201 15.644L3.50801 5.28695C3.04101 4.07395 4.23301 2.88195 5.44701 3.34795L15.804 7.33195C16.97 7.78095 17.109 9.37495 16.037 10.018L12.911 11.894C12.559 12.105 12.265 12.399 12.054 12.751L10.178 15.878C9.53501 16.949 7.94001 16.811 7.49201 15.644Z" stroke="white" stroke-opacity="0.1" stroke-miterlimit="10"/>
</g>
</svg>
