<svg width="19" height="19" viewBox="0 0 19 19" fill="none" xmlns="http://www.w3.org/2000/svg">
<g id="svg2767763255">
<path id="Vector" d="M6.56496 15.8236L2.58096 5.46564C1.95996 3.84964 3.54996 2.25964 5.16596 2.88164L15.523 6.86464C17.079 7.46264 17.263 9.58964 15.835 10.4466L12.708 12.3226C12.426 12.4916 12.191 12.7266 12.022 13.0086L10.147 16.1346C9.28896 17.5636 7.16296 17.3786 6.56496 15.8236Z" fill="#3f7a49"/>
<path id="Vector_2" d="M7.03205 15.644L3.04805 5.28695C2.58105 4.07395 3.77305 2.88195 4.98705 3.34795L15.344 7.33195C16.51 7.78095 16.649 9.37495 15.577 10.018L12.451 11.894C12.099 12.105 11.805 12.399 11.594 12.751L9.71805 15.878C9.07505 16.949 7.48005 16.811 7.03205 15.644Z" stroke="white" stroke-opacity="0.1" stroke-miterlimit="10"/>
</g>
</svg>
