<svg width="18" height="19" viewBox="0 0 18 19" fill="none" xmlns="http://www.w3.org/2000/svg">
<g id="svg3308571545">
<path id="Vector" d="M6.23488 15.8236L2.25088 5.46564C1.62988 3.84964 3.21988 2.25964 4.83588 2.88164L15.1929 6.86464C16.7489 7.46264 16.9329 9.58964 15.5049 10.4466L12.3779 12.3226C12.0959 12.4916 11.8609 12.7266 11.6919 13.0086L9.81688 16.1346C8.95888 17.5636 6.83288 17.3786 6.23488 15.8236Z" fill="#a7504f"/>
<path id="Vector_2" d="M6.70197 15.644L2.71797 5.28695C2.25097 4.07395 3.44297 2.88195 4.65697 3.34795L15.014 7.33195C16.18 7.78095 16.319 9.37495 15.247 10.018L12.121 11.894C11.769 12.105 11.475 12.399 11.264 12.751L9.38797 15.878C8.74497 16.949 7.14997 16.811 6.70197 15.644Z" stroke="white" stroke-opacity="0.1" stroke-miterlimit="10"/>
</g>
</svg>
