<svg width="19" height="19" viewBox="0 0 19 19" fill="none" xmlns="http://www.w3.org/2000/svg">
<g id="svg2745543070">
<path id="Vector" d="M7.21486 15.8236L3.23086 5.46564C2.60986 3.84964 4.19986 2.25964 5.81586 2.88164L16.1729 6.86464C17.7289 7.46264 17.9129 9.58964 16.4849 10.4466L13.3579 12.3226C13.0759 12.4916 12.8409 12.7266 12.6719 13.0086L10.7969 16.1346C9.93886 17.5636 7.81286 17.3786 7.21486 15.8236Z" fill="#6c45ac"/>
<path id="Vector_2" d="M7.68195 15.644L3.69795 5.28695C3.23095 4.07395 4.42295 2.88195 5.63695 3.34795L15.994 7.33195C17.16 7.78095 17.299 9.37495 16.227 10.018L13.101 11.894C12.749 12.105 12.455 12.399 12.244 12.751L10.368 15.878C9.72495 16.949 8.12995 16.811 7.68195 15.644Z" stroke="white" stroke-opacity="0.1" stroke-miterlimit="10"/>
</g>
</svg>
