<svg width="19" height="19" viewBox="0 0 19 19" fill="none" xmlns="http://www.w3.org/2000/svg">
<g id="svg2639853843">
<path id="Vector" d="M7.07497 15.8236L3.09097 5.46564C2.46997 3.84964 4.05997 2.25964 5.67597 2.88164L16.033 6.86464C17.589 7.46264 17.773 9.58964 16.345 10.4466L13.218 12.3226C12.936 12.4916 12.701 12.7266 12.532 13.0086L10.657 16.1346C9.79897 17.5636 7.67297 17.3786 7.07497 15.8236Z" fill="#3675a6"/>
<path id="Vector_2" d="M7.54206 15.644L3.55806 5.28695C3.09106 4.07395 4.28306 2.88195 5.49706 3.34795L15.8541 7.33195C17.0201 7.78095 17.1591 9.37495 16.0871 10.018L12.9611 11.894C12.6091 12.105 12.3151 12.399 12.1041 12.751L10.2281 15.878C9.58506 16.949 7.99006 16.811 7.54206 15.644Z" stroke="white" stroke-opacity="0.1" stroke-miterlimit="10"/>
</g>
</svg>
