<svg width="24" height="24" viewBox="0 0 24 24" fill="none" xmlns="http://www.w3.org/2000/svg">
<g id="svg768806026">
<path id="Vector" d="M23.1929 6.463C23.0769 6.183 22.8029 6 22.4999 6H19.6469C18.8359 4.62 17.3599 3.766 15.7589 3.75C14.5749 3.734 13.4339 4.198 12.5949 5.034C11.7319 5.881 11.2469 7.041 11.2499 8.25V8.821C7.47593 7.825 4.38793 4.755 4.35593 4.722C4.14993 4.515 3.84293 4.446 3.56893 4.545C3.29393 4.644 3.10193 4.893 3.07593 5.183C2.67193 9.664 3.97293 12.662 5.13793 14.388C5.70693 15.241 6.39793 16.006 7.18993 16.657C5.76193 18.3 3.51393 19.163 3.48893 19.173C3.27493 19.253 3.10893 19.427 3.03893 19.645C2.96793 19.863 3.00093 20.101 3.12793 20.291C3.19893 20.396 3.47993 20.765 4.16693 21.109C5.01693 21.534 6.13893 21.75 7.49993 21.75C14.1249 21.75 19.6609 16.648 20.2269 10.084L23.0309 7.281C23.2449 7.066 23.3089 6.743 23.1929 6.463ZM18.9739 9.22C18.8449 9.349 18.7679 9.52 18.7569 9.702C18.3749 15.617 13.4329 20.25 7.49993 20.25C6.50993 20.25 5.81293 20.119 5.32293 19.961C6.40193 19.375 7.90693 18.367 8.87393 16.916C8.98893 16.744 9.02693 16.531 8.97993 16.33C8.93293 16.128 8.80393 15.955 8.62493 15.851C8.58093 15.826 4.50793 13.382 4.49993 6.851C5.99993 8.07 8.74193 9.961 11.8749 10.488C12.0929 10.524 12.3149 10.464 12.4839 10.322C12.6519 10.179 12.7489 9.97 12.7499 9.75V8.25C12.7479 7.442 13.0729 6.667 13.6499 6.101C14.2029 5.547 14.9569 5.24 15.7409 5.25C16.9279 5.265 18.0369 5.989 18.5009 7.051C18.6199 7.324 18.8899 7.5 19.1879 7.5H20.6879L18.9739 9.22Z" fill="white"/>
</g>
</svg>
