<svg width="24" height="24" viewBox="0 0 24 24" fill="none" xmlns="http://www.w3.org/2000/svg">
<g id="svg345331473">
<path id="Vector" d="M12 2.25C6.615 2.25 2.25 6.615 2.25 12C2.25 17.385 6.615 21.75 12 21.75C17.385 21.75 21.75 17.385 21.75 12C21.744 6.618 17.382 2.256 12 2.25ZM6.945 18.516C8.048 16.791 9.953 15.748 12 15.748C14.047 15.748 15.952 16.791 17.055 18.516C14.082 20.828 9.918 20.828 6.945 18.516ZM9 11.25C9 9.593 10.343 8.25 12 8.25C13.657 8.25 15 9.593 15 11.25C15 12.907 13.657 14.25 12 14.25C10.343 14.25 9 12.907 9 11.25ZM18.165 17.476C17.329 16.264 16.152 15.326 14.784 14.781C16.291 13.594 16.88 11.584 16.252 9.772C15.624 7.96 13.917 6.745 12 6.745C10.083 6.745 8.376 7.96 7.748 9.772C7.12 11.584 7.709 13.594 9.216 14.781C7.848 15.326 6.671 16.264 5.835 17.476C2.89 14.165 3.088 9.119 6.281 6.047C9.475 2.976 14.525 2.976 17.719 6.047C20.912 9.119 21.11 14.165 18.165 17.476Z" fill="white"/>
</g>
</svg>
